<svg id="visual" viewBox="0 0 1400 800" width="1400" height="800" xmlns="http://www.w3.org/2000/svg" xmlns:xlink="http://www.w3.org/1999/xlink" version="1.1"><rect x="0" y="0" width="1400" height="800" fill="#BBDEFB"></rect><defs><linearGradient id="grad1_0" x1="42.9%" y1="100%" x2="100%" y2="0%"><stop offset="15%" stop-color="#bbdefb" stop-opacity="1"></stop><stop offset="85%" stop-color="#bbdefb" stop-opacity="1"></stop></linearGradient></defs><defs><linearGradient id="grad2_0" x1="0%" y1="100%" x2="57.1%" y2="0%"><stop offset="15%" stop-color="#bbdefb" stop-opacity="1"></stop><stop offset="85%" stop-color="#bbdefb" stop-opacity="1"></stop></linearGradient></defs><g transform="translate(1400, 800)"><path d="M-600 0C-590.6 -115.8 -581.2 -231.7 -519.6 -300C-458 -368.3 -344.3 -389.2 -249 -431.3C-153.7 -473.4 -76.9 -536.7 0 -600L0 0Z" fill="#90CAF9"></path></g><g transform="translate(0, 0)"><path d="M600 0C585.8 107.5 571.6 215 519.6 300C467.6 385 377.9 447.4 285 493.6C192.1 539.9 96.1 569.9 0 600L0 0Z" fill="#90CAF9"></path></g></svg>